# xmcd
#
# Track frame offsets:
#	150
#	11947
#	22068
#	32607
#	43139
#	53000
#	62192
#	72048
#	83849
#	94096
#	105396
#	115290
#	126932
#	137123
#	149290
#	157726
#	169695
#	179040
#
# Disc length: 2512 seconds
#
# Revision: 1
# Processed by: cddbd v1.5.2PL0 Copyright (c) Steve Scherf et al.
# Submitted via: audiograbber 1.83.01
#
DISCID=f909ce12
DTITLE=Fats Domino - Fats Domino
DYEAR=1949
DGENRE=Blues
TTITLE0=The Fat Man
TTITLE1=Right From Wrong
TTITLE2=No, No, Baby
TTITLE3=Reeling And Rocking
TTITLE4=Goin' Home
TTITLE5=How Long
TTITLE6=Poor, Poor Me
TTITLE7=Cheatin'
TTITLE8=Mardi-Gras in New Orleans
TTITLE9=Going To The River
TTITLE10=Goodbye
TTITLE11=Please, Don't Leave Me
TTITLE12=Rose Mary
TTITLE13=Something's Wrong
TTITLE14=Going Back Home
TTITLE15=Hey, Little School Girl
TTITLE16=You Done Me Wrong
TTITLE17=Thinking Of You
EXTD=IBAN - 3565382005779
EXTT0=
EXTT1=
EXTT2=
EXTT3=
EXTT4=
EXTT5=
EXTT6=
EXTT7=
EXTT8=
EXTT9=
EXTT10=
EXTT11=
EXTT12=
EXTT13=
EXTT14=
EXTT15=
EXTT16=
EXTT17=
PLAYORDER=
